<svg width="11" height="13" viewBox="0 0 11 13" fill="none" xmlns="http://www.w3.org/2000/svg">
<path d="M0.5 9C0.5 9.55 0.74375 10.0437 1.125 10.3875V11.1875C1.125 11.7063 1.54375 12.125 2.0625 12.125C2.58125 12.125 3 11.7063 3 11.1875V10.875H8V11.1875C8 11.7 8.41875 12.125 8.9375 12.125C9.45 12.125 9.875 11.7063 9.875 11.1875V10.3875C10.2563 10.0437 10.5 9.55 10.5 9V2.75C10.5 0.5625 8.2625 0.25 5.5 0.25C2.7375 0.25 0.5 0.5625 0.5 2.75V9ZM2.6875 9.625C2.16875 9.625 1.75 9.20625 1.75 8.6875C1.75 8.16875 2.16875 7.75 2.6875 7.75C3.20625 7.75 3.625 8.16875 3.625 8.6875C3.625 9.20625 3.20625 9.625 2.6875 9.625ZM8.3125 9.625C7.79375 9.625 7.375 9.20625 7.375 8.6875C7.375 8.16875 7.79375 7.75 8.3125 7.75C8.83125 7.75 9.25 8.16875 9.25 8.6875C9.25 9.20625 8.83125 9.625 8.3125 9.625ZM9.25 5.875H1.75V2.75H9.25V5.875Z" fill="#5979FB"/>
</svg>
