<svg width="16" height="19" viewBox="0 0 16 19" fill="none" xmlns="http://www.w3.org/2000/svg">
<path d="M3.88461 16.5V17.4423C3.88461 17.7361 3.78167 17.9858 3.57581 18.1915C3.36992 18.3971 3.11993 18.5 2.82583 18.5C2.53171 18.5 2.2821 18.3971 2.07698 18.1915C1.87185 17.9858 1.76928 17.7361 1.76928 17.4423V15.7769C1.45646 15.5397 1.16672 15.2041 0.900055 14.7702C0.633372 14.3362 0.500031 13.8487 0.500031 13.3077V3.99998C0.500031 2.78958 1.10157 1.90365 2.30466 1.3422C3.50772 0.780735 5.40606 0.5 7.99968 0.5C10.6871 0.5 12.609 0.769792 13.7654 1.30938C14.9218 1.84896 15.5 2.74583 15.5 3.99998V13.3077C15.5 13.8487 15.3666 14.3362 15.1 14.7702C14.8333 15.2041 14.5435 15.5397 14.2307 15.7769V17.4423C14.2307 17.7361 14.1278 17.9858 13.9219 18.1915C13.716 18.3971 13.466 18.5 13.1719 18.5C12.8778 18.5 12.6282 18.3971 12.4231 18.1915C12.218 17.9858 12.1154 17.7361 12.1154 17.4423V16.5H3.88461ZM8.03078 3.26923H13.7846H2.27691H8.03078ZM12 9.99998H2.00001H14H12ZM2.00001 8.5H14V4.7692H2.00001V8.5ZM4.50228 13.8077C4.86615 13.8077 5.17468 13.6803 5.42788 13.4256C5.68108 13.1709 5.80768 12.8616 5.80768 12.4977C5.80768 12.1338 5.68032 11.8253 5.42561 11.5721C5.17091 11.3189 4.86161 11.1923 4.49773 11.1923C4.13386 11.1923 3.82533 11.3197 3.57213 11.5744C3.31893 11.8291 3.19233 12.1384 3.19233 12.5023C3.19233 12.8661 3.31969 13.1747 3.57441 13.4279C3.82911 13.6811 4.1384 13.8077 4.50228 13.8077ZM11.5023 13.8077C11.8661 13.8077 12.1747 13.6803 12.4279 13.4256C12.6811 13.1709 12.8077 12.8616 12.8077 12.4977C12.8077 12.1338 12.6803 11.8253 12.4256 11.5721C12.1709 11.3189 11.8616 11.1923 11.4977 11.1923C11.1339 11.1923 10.8253 11.3197 10.5721 11.5744C10.3189 11.8291 10.1923 12.1384 10.1923 12.5023C10.1923 12.8661 10.3197 13.1747 10.5744 13.4279C10.8291 13.6811 11.1384 13.8077 11.5023 13.8077ZM2.27691 3.26923H13.7846C13.5731 2.87049 13.0372 2.55927 12.1769 2.33555C11.3167 2.11183 9.93463 1.99998 8.03078 1.99998C6.1577 1.99998 4.79102 2.11697 3.93076 2.35095C3.07051 2.58492 2.51922 2.89101 2.27691 3.26923ZM4.00001 15H12C12.55 15 13.0208 14.8041 13.4125 14.4125C13.8042 14.0208 14 13.55 14 13V9.99998H2.00001V13C2.00001 13.55 2.19584 14.0208 2.58751 14.4125C2.97917 14.8041 3.45001 15 4.00001 15Z" fill="#A4B1C3"/>
</svg>
