<svg width="18" height="18" viewBox="0 0 18 18" fill="none" xmlns="http://www.w3.org/2000/svg">
<path d="M10.25 5.09138V1.4086C10.25 1.14775 10.3369 0.93111 10.5107 0.758676C10.6845 0.586226 10.8999 0.5 11.1568 0.5H16.5973C16.8542 0.5 17.0689 0.586226 17.2413 0.758676C17.4138 0.93111 17.5 1.14775 17.5 1.4086V5.09138C17.5 5.35224 17.4131 5.56889 17.2393 5.74133C17.0655 5.91376 16.8501 5.99998 16.5932 5.99998H11.1527C10.8958 5.99998 10.6811 5.91376 10.5087 5.74133C10.3362 5.56889 10.25 5.35224 10.25 5.09138ZM0.500031 8.59993V1.39983C0.500031 1.14483 0.58693 0.93111 0.76073 0.758676C0.93453 0.586226 1.14989 0.5 1.40681 0.5H6.84731C7.10422 0.5 7.3189 0.586259 7.49133 0.758775C7.66376 0.931275 7.74998 1.14503 7.74998 1.40003V8.60013C7.74998 8.85513 7.66309 9.06884 7.48931 9.24128C7.31551 9.41373 7.10015 9.49995 6.84323 9.49995H1.40271C1.14581 9.49995 0.931139 9.41369 0.758706 9.24118C0.586256 9.06868 0.500031 8.85493 0.500031 8.59993ZM10.25 16.5999V9.39983C10.25 9.14483 10.3369 8.93111 10.5107 8.75868C10.6845 8.58623 10.8999 8.5 11.1568 8.5H16.5973C16.8542 8.5 17.0689 8.58626 17.2413 8.75878C17.4138 8.93128 17.5 9.14503 17.5 9.40003V16.6001C17.5 16.8551 17.4131 17.0688 17.2393 17.2413C17.0655 17.4137 16.8501 17.5 16.5932 17.5H11.1527C10.8958 17.5 10.6811 17.4137 10.5087 17.2412C10.3362 17.0687 10.25 16.8549 10.25 16.5999ZM0.500031 16.5914V12.9086C0.500031 12.6477 0.58693 12.4311 0.76073 12.2586C0.93453 12.0862 1.14989 12 1.40681 12H6.84731C7.10422 12 7.3189 12.0862 7.49133 12.2586C7.66376 12.4311 7.74998 12.6477 7.74998 12.9086V16.5914C7.74998 16.8522 7.66309 17.0688 7.48931 17.2413C7.31551 17.4137 7.10015 17.5 6.84323 17.5H1.40271C1.14581 17.5 0.931139 17.4137 0.758706 17.2413C0.586256 17.0688 0.500031 16.8522 0.500031 16.5914ZM2.00001 7.99998H6.25003V1.99998H2.00001V7.99998ZM11.75 16H16V9.99998H11.75V16ZM11.75 4.5H16V1.99998H11.75V4.5ZM2.00001 16H6.25003V13.5H2.00001V16Z" fill="#94A3B8"/>
</svg>
