<svg width="22" height="16" viewBox="0 0 22 16" fill="none" xmlns="http://www.w3.org/2000/svg">
<path d="M12.7514 8.71123C12.0527 8.71123 11.4614 8.46923 10.9774 7.98523C10.4934 7.50124 10.2514 6.9099 10.2514 6.21124C10.2514 5.51257 10.4934 4.92123 10.9774 4.43723C11.4614 3.95323 12.0527 3.71124 12.7514 3.71124C13.4501 3.71124 14.0414 3.95323 14.5254 4.43723C15.0094 4.92123 15.2514 5.51257 15.2514 6.21124C15.2514 6.9099 15.0094 7.50124 14.5254 7.98523C14.0414 8.46923 13.4501 8.71123 12.7514 8.71123ZM6.15516 11.8075C5.65816 11.8075 5.23266 11.6305 4.87866 11.2765C4.52466 10.9225 4.34766 10.4969 4.34766 9.99973V2.42273C4.34766 1.92573 4.52466 1.50023 4.87866 1.14623C5.23266 0.792234 5.65816 0.615234 6.15516 0.615234H19.3474C19.8446 0.615234 20.2702 0.792234 20.6242 1.14623C20.9782 1.50023 21.1552 1.92573 21.1552 2.42273V9.99973C21.1552 10.4969 20.9782 10.9225 20.6242 11.2765C20.2702 11.6305 19.8446 11.8075 19.3474 11.8075H6.15516ZM7.65516 10.3075H17.8477C17.8477 9.80882 18.0247 9.38282 18.3787 9.02948C18.7327 8.67632 19.1582 8.49973 19.6552 8.49973V3.92273C19.1565 3.92273 18.7306 3.74573 18.3774 3.39173C18.0242 3.03773 17.8477 2.61223 17.8477 2.11523H7.65516C7.65516 2.6139 7.47816 3.03982 7.12416 3.39298C6.77016 3.74615 6.34466 3.92273 5.84766 3.92273V8.49973C6.34632 8.49973 6.77224 8.67673 7.12541 9.03073C7.47857 9.38473 7.65516 9.81032 7.65516 10.3075ZM17.4244 15.3075H2.65541C2.15824 15.3075 1.73266 15.1305 1.37866 14.7765C1.02466 14.4225 0.847656 13.9969 0.847656 13.4997V4.34598C0.847656 4.13348 0.919573 3.95532 1.06341 3.81148C1.20724 3.66782 1.38541 3.59598 1.59791 3.59598C1.81057 3.59598 1.98866 3.66782 2.13216 3.81148C2.27582 3.95532 2.34766 4.13348 2.34766 4.34598V13.4997C2.34766 13.5766 2.37966 13.6471 2.44366 13.7112C2.50782 13.7754 2.57841 13.8075 2.65541 13.8075H17.4244C17.6369 13.8075 17.8151 13.8794 17.9589 14.0232C18.1026 14.1669 18.1744 14.3451 18.1744 14.5577C18.1744 14.7704 18.1026 14.9485 17.9589 15.092C17.8151 15.2357 17.6369 15.3075 17.4244 15.3075ZM6.15516 10.3075H5.84766V2.11523H6.15516C6.07182 2.11523 5.99974 2.14565 5.93891 2.20649C5.87807 2.26732 5.84766 2.3394 5.84766 2.42273V9.99973C5.84766 10.0831 5.87807 10.1552 5.93891 10.216C5.99974 10.277 6.07182 10.3075 6.15516 10.3075Z" fill="#A4B1C3"/>
</svg>
