<svg width="18" height="19" viewBox="0 0 18 19" fill="none" xmlns="http://www.w3.org/2000/svg">
<path d="M8.99862 18.1921C7.74992 18.1921 6.68774 17.7543 5.81209 16.8787C4.93646 16.003 4.49864 14.9409 4.49864 13.6921C4.49864 12.4434 4.93646 11.3813 5.81209 10.5056C6.68774 9.63001 7.74992 9.19219 8.99862 9.19219C10.2473 9.19219 11.3095 9.63001 12.1851 10.5056C13.0608 11.3813 13.4986 12.4434 13.4986 13.6921C13.4986 14.9409 13.0608 16.003 12.1851 16.8787C11.3095 17.7543 10.2473 18.1921 8.99862 18.1921ZM8.99862 6.80754C8.19862 6.80754 7.42619 6.9303 6.68132 7.17582C5.93644 7.42133 5.25951 7.7896 4.65054 8.28062C4.46978 8.4319 4.26465 8.49921 4.03517 8.48254C3.80568 8.46588 3.60888 8.37549 3.44477 8.21139L0.446742 5.19412C0.259559 5.00693 0.170776 4.77777 0.180392 4.50662C0.190009 4.23547 0.301867 4.01784 0.515967 3.85374C1.73905 2.88196 3.06885 2.13133 4.50537 1.60184C5.9419 1.07236 7.43965 0.807617 8.99862 0.807617C10.5576 0.807617 12.0553 1.07236 13.4919 1.60184C14.9284 2.13133 16.2582 2.88196 17.4813 3.85374C17.6954 4.01784 17.8072 4.23547 17.8168 4.50662C17.8265 4.77777 17.7377 5.00693 17.5505 5.19412L14.5525 8.21139C14.3884 8.37549 14.1916 8.46588 13.9621 8.48254C13.7326 8.49921 13.5275 8.4319 13.3467 8.28062C12.7377 7.7896 12.0608 7.42133 11.3159 7.17582C10.5711 6.9303 9.79862 6.80754 8.99862 6.80754Z" fill="#7B8597"/>
</svg>
