<svg width="18" height="19" viewBox="0 0 18 19" fill="none" xmlns="http://www.w3.org/2000/svg">
<path d="M8.99862 18.1924C7.74992 18.1924 6.68774 17.7545 5.81209 16.8789C4.93646 16.0033 4.49864 14.9411 4.49864 13.6924C4.49864 12.4437 4.93646 11.3815 5.81209 10.5059C6.68774 9.63025 7.74992 9.19244 8.99862 9.19244C10.2473 9.19244 11.3095 9.63025 12.1851 10.5059C13.0608 11.3815 13.4986 12.4437 13.4986 13.6924C13.4986 14.9411 13.0608 16.0033 12.1851 16.8789C11.3095 17.7545 10.2473 18.1924 8.99862 18.1924ZM8.99862 6.80779C8.19862 6.80779 7.42619 6.93055 6.68132 7.17606C5.93644 7.42158 5.25951 7.78984 4.65054 8.28086C4.46978 8.43215 4.26465 8.49945 4.03517 8.48279C3.80568 8.46612 3.60888 8.37574 3.44477 8.21164L0.446742 5.19436C0.259559 5.00718 0.170776 4.77801 0.180392 4.50686C0.190009 4.23571 0.301867 4.01809 0.515967 3.85399C1.73905 2.8822 3.06885 2.13157 4.50537 1.60209C5.9419 1.0726 7.43965 0.807861 8.99862 0.807861C10.5576 0.807861 12.0553 1.0726 13.4919 1.60209C14.9284 2.13157 16.2582 2.8822 17.4813 3.85399C17.6954 4.01809 17.8072 4.23571 17.8168 4.50686C17.8265 4.77801 17.7377 5.00718 17.5505 5.19436L14.5525 8.21164C14.3884 8.37574 14.1916 8.46612 13.9621 8.48279C13.7326 8.49945 13.5275 8.43215 13.3467 8.28086C12.7377 7.78984 12.0608 7.42158 11.3159 7.17606C10.5711 6.93055 9.79862 6.80779 8.99862 6.80779Z" fill="#334155"/>
</svg>
